#!OML:ASF H:\LiuWeirdWalks\Patient Classification 1\Patient 1\Session 1\male.ASF
:FULLY-SPECIFIED
:DEGREES
989
root 1.77087 18.2217 4.34614 5.05696 0.56397 -5.44265
lowerback 10.4928 0.196129 -1.73339
upperback 0.487668 0.239497 3.29427
thorax -5.40491 0.202428 4.40597
lowerneck -21.2193 1.27913 7.13031
upperneck 15.2353 1.4604 -9.3767
head 8.34255 0.119978 -4.17188
rclavicle 1.06598e-014 -2.36554e-014
rhumerus -12.9079 -30.4617 -9.50016
rradius 31.4862
rwrist 0.00203473
rhand -21.3236 -7.04118
rfingers 7.12502
rthumb 5.0619 -36.9607
lclavicle 1.06598e-014 -2.36554e-014
lhumerus -25.5332 28.7745 20.3279
lradius 41.3699
lwrist 10.7069
lhand -20.208 -3.08247
lfingers 7.12502
lthumb 6.13898 26.8086
rfemur 2.83042 -3.01639 20.6935
rtibia 25.726
rfoot -6.86509 -8.56592
rtoes -21.7744
lfemur -23.7267 -0.652644 -11.5962
ltibia 32.4017
lfoot -2.39484 15.7529
ltoes -8.81477
990
root 1.78881 18.2275 4.39523 5.18249 0.555372 -5.51925
lowerback 10.4712 0.199014 -1.89382
upperback 0.451788 0.219071 3.19163
thorax -5.42883 0.196007 4.39189
lowerneck -21.2901 1.23094 7.00799
upperneck 15.3289 1.37495 -9.08841
head 8.37463 0.100788 -4.06546
rclavicle -8.46621e-015 1.09269e-014
rhumerus -12.793 -30.6158 -9.40284
rradius 31.5148
rwrist 0.0276243
rhand -21.3152 -6.98987
rfingers 7.12502
rthumb 5.07005 -36.9092
lclavicle -8.46621e-015 1.09269e-014
lhumerus -25.5656 28.7803 20.3651
lradius 41.3446
lwrist 10.6778
lhand -20.2054 -3.09449
lfingers 7.12502
lthumb 6.14148 26.7965
rfemur 2.91886 -2.99064 20.6874
rtibia 25.5524
rfoot -6.5838 -8.42916
rtoes -21.9979
lfemur -23.7393 -0.660566 -11.5798
ltibia 32.5058
lfoot -2.567 15.8467
ltoes -8.78929
991
root 1.80643 18.2336 4.44342 5.31397 0.552461 -5.58667
lowerback 10.4471 0.201781 -2.05607
upperback 0.416628 0.197923 3.08316
thorax -5.45051 0.1892 4.37274
lowerneck -21.342 1.17668 6.87315
upperneck 15.415 1.28276 -8.78711
head 8.40062 0.079686 -3.95299
rclavicle 1.30949e-014 -2.00276e-014
rhumerus -12.6935 -30.7794 -9.29508
rradius 31.5535
rwrist 0.0275367
rhand -21.3311 -6.99958
rfingers 7.12502
rthumb 5.05469 -36.9193
lclavicle 1.30949e-014 -2.00276e-014
lhumerus -25.6012 28.788 20.4105
lradius 41.3372
lwrist 10.6623
lhand -20.2031 -3.09194
lfingers 7.12502
lthumb 6.14373 26.799
rfemur 2.9921 -2.96708 20.6733
rtibia 25.3883
rfoot -6.29651 -8.29068
rtoes -22.2327
lfemur -23.761 -0.667884 -11.5691
ltibia 32.6047
lfoot -2.73766 15.9229
ltoes -8.77017
992
root 1.82358 18.2395 4.49133 5.44187 0.553126 -5.6667
lowerback 10.4305 0.200547 -2.20666
upperback 0.380993 0.172671 2.97301
thorax -5.47642 0.180179 4.34584
lowerneck -21.3969 1.13453 6.76844
upperneck 15.474 1.20043 -8.50786
head 8.41969 0.0629581 -3.85137
rclavicle -6.85807e-015 -9.54166e-015
rhumerus -12.599 -30.9197 -9.19029
rradius 31.5936
rwrist 0.0254455
rhand -21.3429 -7.04773
rfingers 7.12502
rthumb 5.04324 -36.9677
lclavicle -6.85807e-015 -9.54166e-015
lhumerus -25.6535 28.7769 20.4469
lradius 41.3532
lwrist 10.6959
lhand -20.2171 -3.07119
lfingers 7.12502
lthumb 6.13026 26.8201
rfemur 3.06325 -2.93785 20.6761
rtibia 25.2344
rfoot -6.00412 -8.15312
rtoes -22.4701
lfemur -23.7777 -0.674756 -11.5388
ltibia 32.6996
lfoot -2.90806 15.9851
ltoes -8.75542
993
root 1.84039 18.2454 4.53879 5.5666 0.555179 -5.75507
lowerback 10.4092 0.199938 -2.34425
upperback 0.351586 0.149509 2.85896
thorax -5.49322 0.171566 4.30695
lowerneck -21.4407 1.09415 6.68124
upperneck 15.5013 1.1166 -8.24188
head 8.42659 0.0456243 -3.75669
rclavicle 2.48481e-015 -1.25234e-014
rhumerus -12.5472 -30.9444 -9.06472
rradius 31.67
rwrist -0.0804448
rhand -21.38 -7.119
rfingers 7.12502
rthumb 5.00747 -37.0398
lclavicle 2.48481e-015 -1.25234e-014
lhumerus -25.7136 28.7548 20.4843
lradius 41.3907
lwrist 10.7452
lhand -20.2008 -3.07009
lfingers 7.12502
lthumb 6.14596 26.8208
rfemur 3.12519 -2.90532 20.6891
rtibia 25.0974
rfoot -5.70784 -8.01401
rtoes -22.714
lfemur -23.7893 -0.679524 -11.4951
ltibia 32.7896
lfoot -3.07875 16.0352
ltoes -8.75217
994
root 1.85698 18.2509 4.58595 5.68909 0.559999 -5.83809
lowerback 10.3754 0.194125 -2.48316
upperback 0.334367 0.118813 2.73645
thorax -5.48944 0.158578 4.26069
lowerneck -21.4458 1.06536 6.6306
upperneck 15.5017 1.04241 -7.9969
head 8.41921 0.0336984 -3.67316
rclavicle -1.56543e-014 -9.93923e-015
rhumerus -12.4818 -30.9933 -8.94574
rradius 31.7155
rwrist -0.113406
rhand -21.3709 -7.10435
rfingers 7.12502
rthumb 5.01621 -37.025
lclavicle -1.56543e-014 -9.93923e-015
lhumerus -25.7702 28.7726 20.5064
lradius 41.417
lwrist 10.7829
lhand -20.1814 -3.09835
lfingers 7.12502
lthumb 6.16471 26.7919
rfemur 3.17874 -2.87706 20.6937
rtibia 24.9799
rfoot -5.41677 -7.86534
rtoes -22.9464
lfemur -23.7963 -0.675638 -11.4563
ltibia 32.8758
lfoot -3.25387 16.0694
ltoes -8.74571
995
root 1.87281 18.2562 4.63264 5.8132 0.570048 -5.93369
lowerback 10.3418 0.187697 -2.61547
upperback 0.31412 0.0882393 2.61459
thorax -5.48897 0.145612 4.21139
lowerneck -21.4456 1.03736 6.5942
upperneck 15.4898 0.966517 -7.76106
head 8.40702 0.0209858 -3.59515
rclavicle 3.97569e-016 -2.34566e-014
rhumerus -12.4416 -30.9564 -8.8127
rradius 31.7848
rwrist -0.212392
rhand -21.3639 -7.12819
rfingers 7.12502
rthumb 5.02302 -37.0486
lclavicle 3.97569e-016 -2.34566e-014
lhumerus -25.824 28.8072 20.524
lradius 41.4234
lwrist 10.7771
lhand -20.1569 -3.17462
lfingers 7.12502
lthumb 6.18837 26.715
rfemur 3.21653 -2.85006 20.7155
rtibia 24.8844
rfoot -5.12865 -7.71801
rtoes -23.177
lfemur -23.8045 -0.670506 -11.3998
ltibia 32.9577
lfoot -3.43309 16.0988
ltoes -8.7472
996
root 1.88793 18.2612 4.67861 5.93999 0.576004 -6.02994
lowerback 10.3056 0.182383 -2.75788
upperback 0.293395 0.0580588 2.49228
thorax -5.48756 0.133099 4.1673
lowerneck -21.4429 1.01394 6.5798
upperneck 15.4476 0.892911 -7.54486
head 8.38482 0.00863155 -3.52669
rclavicle 1.78906e-015 1.35174e-014
rhumerus -12.3847 -30.9243 -8.67955
rradius 31.8302
rwrist -0.277512
rhand -21.3304 -7.09944
rfingers 7.12502
rthumb 5.0553 -37.0191
lclavicle 1.78906e-015 1.35174e-014
lhumerus -25.8823 28.8493 20.5386
lradius 41.4192
lwrist 10.7768
lhand -20.1201 -3.26942
lfingers 7.12502
lthumb 6.22382 26.6192
rfemur 3.23429 -2.81804 20.7408
rtibia 24.8144
rfoot -4.84517 -7.5701
rtoes -23.4133
lfemur -23.8136 -0.656207 -11.3408
ltibia 33.0325
lfoot -3.61338 16.1281
ltoes -8.74714
997
root 1.90216 18.2658 4.72402 6.06987 0.580529 -6.14681
lowerback 10.261 0.174994 -2.89162
upperback 0.278411 0.0265926 2.37371
thorax -5.4753 0.119461 4.12227
lowerneck -21.4404 0.995047 6.56896
upperneck 15.432 0.824725 -7.32353
head 8.3723 -0.000424312 -3.45701
rclavicle 7.95139e-015 -5.1684e-015
rhumerus -12.3307 -30.8847 -8.54434
rradius 31.8711
rwrist -0.328464
rhand -21.294 -7.06774
rfingers 7.12502
rthumb 5.09044 -36.9866
lclavicle 7.95139e-015 -5.1684e-015
lhumerus -25.9476 28.8975 20.5469
lradius 41.4064
lwrist 10.7748
lhand -20.1164 -3.3494
lfingers 7.12502
lthumb 6.22747 26.5391
rfemur 3.23188 -2.77888 20.7932
rtibia 24.7662
rfoot -4.56483 -7.42568
rtoes -23.6559
lfemur -23.8223 -0.641451 -11.2554
ltibia 33.0983
lfoot -3.79453 16.1689
ltoes -8.73549
998
root 1.91579 18.2699 4.76899 6.20222 0.581556 -6.26175
lowerback 10.2173 0.167315 -3.03996
upperback 0.254497 -0.00709158 2.25048
thorax -5.4728 0.105412 4.08108
lowerneck -21.4519 0.969644 6.54593
upperneck 15.4116 0.747127 -7.08579
head 8.35995 -0.0131532 -3.38099
rclavicle -1.56046e-014 -1.03368e-014
rhumerus -12.292 -30.7959 -8.40438
rradius 31.9248
rwrist -0.387606
rhand -21.2338 -7.06699
rfingers 7.12502
rthumb 5.14858 -36.9844
lclavicle -1.56046e-014 -1.03368e-014
lhumerus -26.0266 28.9108 20.5456
lradius 41.3886
lwrist 10.7848
lhand -20.1324 -3.39255
lfingers 7.12502
lthumb 6.21203 26.4964
rfemur 3.21252 -2.74068 20.8448
rtibia 24.7401
rfoot -4.28476 -7.27648
rtoes -23.9118
lfemur -23.826 -0.629372 -11.1714
ltibia 33.151
lfoot -3.9717 16.2255
ltoes -8.70787
999
root 1.92939 18.2737 4.81438 6.33439 0.585702 -6.37916
lowerback 10.1751 0.154489 -3.19077
upperback 0.230488 -0.0479016 2.12591
thorax -5.47049 0.0879158 4.04094
lowerneck -21.4707 0.94213 6.51764
upperneck 15.4279 0.666843 -6.83546
head 8.36127 -0.0261347 -3.30102
rclavicle -1.81888e-014 -1.51076e-014
rhumerus -12.2347 -30.7121 -8.27602
rradius 31.9763
rwrist -0.49702
rhand -21.2136 -7.13544
rfingers 7.12502
rthumb 5.1681 -37.0524
lclavicle -1.81888e-014 -1.51076e-014
lhumerus -26.1263 28.9031 20.5386
lradius 41.3709
lwrist 10.8116
lhand -20.1529 -3.40293
lfingers 7.12502
lthumb 6.1922 26.4866
rfemur 3.18423 -2.72216 20.8931
rtibia 24.7303
rfoot -4.01081 -7.10732
rtoes -24.181
lfemur -23.8167 -0.626082 -11.087
ltibia 33.1877
lfoot -4.14918 16.3012
ltoes -8.65606
1000
root 1.94272 18.2769 4.86008 6.46343 0.585101 -6.48646
lowerback 10.1309 0.139186 -3.36026
upperback 0.20937 -0.0944089 1.99429
thorax -5.4635 0.0678662 4.00474
lowerneck -21.4879 0.918208 6.49913
upperneck 15.4494 0.589068 -6.58708
head 8.36463 -0.0374353 -3.22314
rclavicle 3.18055e-015 4.77083e-015
rhumerus -12.1767 -30.6419 -8.14939
rradius 32.0207
rwrist -0.571986
rhand -21.179 -7.15221
rfingers 7.12502
rthumb 5.2015 -37.0684
lclavicle 3.18055e-015 4.77083e-015
lhumerus -26.2434 28.8832 20.5226
lradius 41.361
lwrist 10.8593
lhand -20.1815 -3.38066
lfingers 7.12502
lthumb 6.16457 26.5096
rfemur 3.15404 -2.71094 20.9256
rtibia 24.7321
rfoot -3.74571 -6.92489
rtoes -24.4358
lfemur -23.7884 -0.629405 -11.0156
ltibia 33.2078
lfoot -4.32437 16.3962
ltoes -8.58269
1001
root 1.95598 18.2795 4.9063 6.59044 0.584687 -6.58762
lowerback 10.0828 0.123985 -3.53754
upperback 0.185285 -0.141733 1.85713
thorax -5.45736 0.0476283 3.96719
lowerneck -21.5323 0.881894 6.45935
upperneck 15.5114 0.496352 -6.31775
head 8.38545 -0.0549587 -3.13759
rclavicle -1.23246e-014 1.59028e-014
rhumerus -12.127 -30.6231 -8.01274
rradius 32.0514
rwrist -0.606658
rhand -21.1561 -7.1315
rfingers 7.12502
rthumb 5.22362 -37.0471
lclavicle -1.23246e-014 1.59028e-014
lhumerus -26.367 28.8719 20.5056
lradius 41.3451
lwrist 10.8811
lhand -20.1844 -3.32707
lfingers 7.12502
lthumb 6.16177 26.5633
rfemur 3.12251 -2.71168 20.9465
rtibia 24.7407
rfoot -3.47981 -6.72958
rtoes -24.6925
lfemur -23.7426 -0.650754 -10.9517
ltibia 33.2115
lfoot -4.49284 16.5144
ltoes -8.50194
1002
root 1.96908 18.2816 4.95275 6.70991 0.592803 -6.69576
lowerback 10.0287 0.0989434 -3.71106
upperback 0.169946 -0.201486 1.71629
thorax -5.43737 0.0206405 3.92521
lowerneck -21.551 0.86148 6.46215
upperneck 15.5407 0.417859 -6.07537
head 8.39231 -0.0657101 -3.06561
rclavicle 9.54166e-015 -7.15625e-015
rhumerus -12.051 -30.6778 -7.89816
rradius 32.0544
rwrist -0.587419
rhand -21.1444 -7.04263
rfingers 7.12502
rthumb 5.2349 -36.958
lclavicle 9.54166e-015 -7.15625e-015
lhumerus -26.4933 28.9004 20.4703
lradius 41.3097
lwrist 10.8807
lhand -20.1689 -3.31632
lfingers 7.12502
lthumb 6.17675 26.5736
rfemur 3.09714 -2.72973 20.9719
rtibia 24.756
rfoot -3.22141 -6.52331
rtoes -24.935
lfemur -23.6792 -0.685183 -10.8801
ltibia 33.2008
lfoot -4.65809 16.6401
ltoes -8.4162
